<?xml version="1.0" encoding="UTF-8"?>
<!DOCTYPE svg PUBLIC "-//W3C//DTD SVG 1.1//EN" "http://www.w3.org/Graphics/SVG/1.1/DTD/svg11.dtd">
<!-- Creator: CorelDRAW -->
<svg xmlns="http://www.w3.org/2000/svg" xml:space="preserve" width="512px" height="512px" version="1.1" style="shape-rendering:geometricPrecision; text-rendering:geometricPrecision; image-rendering:optimizeQuality; fill-rule:evenodd; clip-rule:evenodd"
viewBox="0 0 512 512"
 xmlns:xlink="http://www.w3.org/1999/xlink">
 <defs>
  <style type="text/css">
   <![CDATA[
    .fil2 {fill:#2A2F35}
    .fil1 {fill:#C2C4CB}
    .fil0 {fill:#D7DAE1}
    .fil3 {fill:#FFDD33}
   ]]>
  </style>
 </defs>
 <g id="Layer_x0020_1">
  <metadata id="CorelCorpID_0Corel-Layer"/>
  <path class="fil0" d="M504 510l-497 0c-4,0 -7,-3 -7,-7l0 -494c0,-4 3,-7 7,-7l498 0c4,0 7,3 7,7l0 494c0,4 -4,7 -8,7z"/>
  <path class="fil1" d="M256 2c0,105 0,365 0,508l248 0c4,0 8,-3 8,-7l0 -494c0,-4 -3,-7 -7,-7l-249 0z"/>
  <path class="fil2" d="M348 420c0,0 0,0 0,0l-190 0c-4,0 -7,-4 -7,-7l-1 -102 -83 1c-1,0 -3,-1 -5,-2 -1,-1 -2,-3 -2,-5l0 -207c0,-4 4,-7 8,-7l378 0c4,0 7,3 7,7l0 207c0,2 -1,4 -2,5 -1,1 -3,2 -5,2l-90 -1 0 102c0,2 0,3 -2,5 -1,1 -4,2 -6,2z"/>
  <g id="_644905816">
   <path class="fil3" d="M213 420l-15 0 0 -62c0,-4 4,-8 8,-8 4,0 7,4 7,8l0 62z"/>
   <path class="fil3" d="M310 420l-15 0 0 -62c0,-4 3,-8 7,-8 5,0 8,4 8,8l0 62z"/>
  </g>
  <path class="fil3" d="M365 242c-4,0 -8,-4 -8,-8l0 -64c0,-4 4,-7 8,-7 4,0 7,3 7,7l0 65c0,3 -3,7 -7,7z"/>
  <path class="fil3" d="M295 242c-4,0 -8,-4 -8,-8l0 -64c0,-4 4,-7 8,-7 4,0 7,3 7,7l0 65c0,3 -3,7 -7,7z"/>
  <path class="fil3" d="M217 242c-4,0 -8,-4 -8,-8l0 -64c0,-4 4,-7 8,-7 4,0 7,3 7,7l0 65c0,3 -3,7 -7,7z"/>
  <path class="fil3" d="M142 242c-4,0 -8,-4 -8,-8l0 -64c0,-4 4,-7 8,-7 4,0 7,3 7,7l0 65c0,3 -3,7 -7,7z"/>
  <path class="fil2" d="M189 465l-124 0c-4,0 -8,-3 -8,-7 0,-5 4,-8 8,-8l124 0c4,0 8,3 8,8 0,4 -4,7 -8,7z"/>
  <path class="fil2" d="M447 465l-125 0c-4,0 -7,-3 -7,-7 0,-5 3,-8 7,-8l125 0c4,0 8,3 8,8 0,4 -4,7 -8,7z"/>
  <path class="fil2" d="M189 62l-124 0c-4,0 -8,-3 -8,-8 0,-4 4,-7 8,-7l124 0c4,0 8,3 8,7 0,5 -4,8 -8,8z"/>
  <path class="fil2" d="M447 62l-125 0c-4,0 -7,-3 -7,-8 0,-4 3,-7 7,-7l125 0c4,0 8,3 8,7 0,5 -4,8 -8,8z"/>
 </g>
</svg>
